<svg xmlns="http://www.w3.org/2000/svg" width="471" height="115" viewBox="0 0 471 115" fill="none"><path d="M57.2949 45.3027V70.1992L35.7353 82.6455L14.1768 70.1992V45.3027L35.7353 32.8555L57.2949 45.3027Z" stroke="#5E53E2" stroke-width="2.38042"></path><path d="M63.6666 50.0353L56.2129 77.8528L28.3966 85.3058L8.03477 64.9425L15.4879 37.1269L43.3035 29.6727L63.6666 50.0353Z" stroke="#5E53E2" stroke-width="2.38042"></path><path d="M69.3241 57.4992L52.5848 86.4924L19.1077 86.4921L2.36939 57.4994L19.1077 28.5078L52.5858 28.5065L69.3241 57.4992Z" stroke="#5E53E2" stroke-width="2.38042"></path><path d="M108.036 33.4771C112.924 33.4771 117.212 34.4324 120.9 36.3431C124.632 38.2538 127.498 40.9865 129.498 44.5413C131.542 48.0516 132.564 52.1396 132.564 56.8052C132.564 61.4708 131.542 65.5588 129.498 69.0691C127.498 72.535 124.632 75.2233 120.9 77.134C117.212 79.0447 112.924 80 108.036 80H91.773V33.4771H108.036ZM107.703 72.0684C112.591 72.0684 116.367 70.7354 119.034 68.0693C121.7 65.4033 123.033 61.6486 123.033 56.8052C123.033 51.9618 121.7 48.1849 119.034 45.4744C116.367 42.7195 112.591 41.342 107.703 41.342H101.104V72.0684H107.703ZM173.874 60.7377C173.874 62.0707 173.786 63.2704 173.608 64.3368H146.614C146.836 67.0029 147.769 69.0913 149.413 70.6021C151.057 72.1129 153.079 72.8683 155.479 72.8683C158.944 72.8683 161.411 71.3797 162.877 68.4026H172.941C171.875 71.9574 169.831 74.89 166.809 77.2006C163.788 79.4668 160.077 80.5999 155.678 80.5999C152.124 80.5999 148.924 79.8223 146.081 78.2671C143.281 76.6674 141.082 74.4235 139.482 71.5352C137.927 68.647 137.149 65.3144 137.149 61.5375C137.149 57.7161 137.927 54.3613 139.482 51.4731C141.037 48.5848 143.215 46.3631 146.014 44.8079C148.813 43.2527 152.035 42.4751 155.678 42.4751C159.189 42.4751 162.321 43.2305 165.076 44.7412C167.876 46.252 170.031 48.4071 171.542 51.2065C173.097 53.9614 173.874 57.1385 173.874 60.7377ZM164.21 58.0716C164.165 55.6721 163.299 53.7614 161.61 52.3395C159.922 50.8732 157.856 50.14 155.412 50.14C153.101 50.14 151.146 50.851 149.547 52.2729C147.991 53.6504 147.036 55.5833 146.68 58.0716H164.21ZM215.011 60.7377C215.011 62.0707 214.922 63.2704 214.744 64.3368H187.75C187.973 67.0029 188.906 69.0913 190.55 70.6021C192.194 72.1129 194.216 72.8683 196.615 72.8683C200.081 72.8683 202.547 71.3797 204.013 68.4026H214.078C213.011 71.9574 210.967 74.89 207.946 77.2006C204.924 79.4668 201.214 80.5999 196.815 80.5999C193.26 80.5999 190.061 79.8223 187.217 78.2671C184.418 76.6674 182.218 74.4235 180.619 71.5352C179.063 68.647 178.286 65.3144 178.286 61.5375C178.286 57.7161 179.063 54.3613 180.619 51.4731C182.174 48.5848 184.351 46.3631 187.151 44.8079C189.95 43.2527 193.171 42.4751 196.815 42.4751C200.325 42.4751 203.458 43.2305 206.213 44.7412C209.012 46.252 211.167 48.4071 212.678 51.2065C214.233 53.9614 215.011 57.1385 215.011 60.7377ZM205.346 58.0716C205.302 55.6721 204.436 53.7614 202.747 52.3395C201.059 50.8732 198.992 50.14 196.548 50.14C194.238 50.14 192.283 50.851 190.683 52.2729C189.128 53.6504 188.173 55.5833 187.817 58.0716H205.346ZM231.153 48.4071C232.353 46.7186 233.997 45.3189 236.085 44.208C238.218 43.0527 240.64 42.4751 243.35 42.4751C246.505 42.4751 249.349 43.2527 251.882 44.8079C254.459 46.3631 256.481 48.5848 257.947 51.4731C259.458 54.3169 260.213 57.6272 260.213 61.4042C260.213 65.1811 259.458 68.5359 257.947 71.4686C256.481 74.3568 254.459 76.6008 251.882 78.2004C249.349 79.8 246.505 80.5999 243.35 80.5999C240.64 80.5999 238.24 80.0444 236.152 78.9336C234.108 77.8227 232.442 76.423 231.153 74.7345V97.5961H221.822V43.075H231.153V48.4071ZM250.682 61.4042C250.682 59.1824 250.216 57.2718 249.282 55.6721C248.394 54.028 247.194 52.7839 245.683 51.9396C244.217 51.0954 242.617 50.6732 240.884 50.6732C239.196 50.6732 237.596 51.1176 236.085 52.0063C234.619 52.8505 233.419 54.0947 232.486 55.7388C231.598 57.3829 231.153 59.3158 231.153 61.5375C231.153 63.7592 231.598 65.6921 232.486 67.3362C233.419 68.9802 234.619 70.2466 236.085 71.1353C237.596 71.9796 239.196 72.4017 240.884 72.4017C242.617 72.4017 244.217 71.9574 245.683 71.0687C247.194 70.18 248.394 68.9136 249.282 67.2695C250.216 65.6254 250.682 63.6703 250.682 61.4042ZM301.32 60.7377C301.32 62.0707 301.231 63.2704 301.053 64.3368H274.059C274.281 67.0029 275.214 69.0913 276.859 70.6021C278.503 72.1129 280.524 72.8683 282.924 72.8683C286.39 72.8683 288.856 71.3797 290.322 68.4026H300.387C299.32 71.9574 297.276 74.89 294.255 77.2006C291.233 79.4668 287.523 80.5999 283.124 80.5999C279.569 80.5999 276.37 79.8223 273.526 78.2671C270.727 76.6674 268.527 74.4235 266.927 71.5352C265.372 68.647 264.595 65.3144 264.595 61.5375C264.595 57.7161 265.372 54.3613 266.927 51.4731C268.483 48.5848 270.66 46.3631 273.459 44.8079C276.259 43.2527 279.48 42.4751 283.124 42.4751C286.634 42.4751 289.767 43.2305 292.522 44.7412C295.321 46.252 297.476 48.4071 298.987 51.2065C300.542 53.9614 301.32 57.1385 301.32 60.7377ZM291.655 58.0716C291.611 55.6721 290.744 53.7614 289.056 52.3395C287.367 50.8732 285.301 50.14 282.857 50.14C280.547 50.14 278.592 50.851 276.992 52.2729C275.437 53.6504 274.481 55.5833 274.126 58.0716H291.655ZM317.462 48.807C318.662 46.8519 320.217 45.3189 322.128 44.208C324.083 43.0972 326.304 42.5417 328.793 42.5417V52.3395H326.327C323.394 52.3395 321.172 53.0283 319.661 54.4057C318.195 55.7832 317.462 58.1827 317.462 61.6041V80H308.131V43.075H317.462V48.807ZM349.608 33.4105C354.762 33.4105 359.183 34.3436 362.872 36.2098C366.56 38.0761 369.381 40.7644 371.336 44.2747C373.291 47.785 374.269 51.9618 374.269 56.8052C374.269 61.6041 373.291 65.7588 371.336 69.2691C369.381 72.735 366.56 75.401 362.872 77.2673C359.183 79.0891 354.762 80 349.608 80H335.811V33.4105H349.608ZM349.608 76.1342C356.095 76.1342 361.028 74.4457 364.405 71.0687C367.826 67.6472 369.537 62.8927 369.537 56.8052C369.537 50.6732 367.826 45.8965 364.405 42.4751C361.028 39.0092 356.095 37.2763 349.608 37.2763H340.477V76.1342H349.608ZM385.204 36.743C384.27 36.743 383.471 36.4098 382.804 35.7433C382.138 35.0767 381.804 34.2547 381.804 33.2771C381.804 32.2996 382.138 31.4998 382.804 30.8777C383.471 30.2112 384.27 29.8779 385.204 29.8779C386.137 29.8779 386.936 30.2112 387.603 30.8777C388.27 31.4998 388.603 32.2996 388.603 33.2771C388.603 34.2547 388.27 35.0767 387.603 35.7433C386.936 36.4098 386.137 36.743 385.204 36.743ZM387.536 43.6082V80H382.871V43.6082H387.536ZM411.032 75.4677L423.296 43.6082H428.228L413.632 80H408.366L393.769 43.6082H398.768L411.032 75.4677ZM467.478 59.9378C467.478 61.5375 467.433 62.7594 467.344 63.6037H437.151C437.285 66.3586 437.951 68.7136 439.151 70.6688C440.351 72.6239 441.928 74.1124 443.883 75.1344C445.838 76.112 447.971 76.6008 450.282 76.6008C453.303 76.6008 455.836 75.8676 457.88 74.4013C459.968 72.9349 461.346 70.9576 462.012 68.4693H466.945C466.056 72.024 464.145 74.9345 461.213 77.2006C458.324 79.4224 454.681 80.5332 450.282 80.5332C446.86 80.5332 443.794 79.7778 441.084 78.2671C438.373 76.7118 436.24 74.5346 434.685 71.7352C433.174 68.8914 432.419 65.581 432.419 61.8041C432.419 58.0272 433.174 54.7168 434.685 51.873C436.196 49.0292 438.307 46.8519 441.017 45.3411C443.728 43.8303 446.816 43.075 450.282 43.075C453.748 43.075 456.769 43.8303 459.346 45.3411C461.968 46.8519 463.967 48.8959 465.345 51.4731C466.767 54.0058 467.478 56.8274 467.478 59.9378ZM462.746 59.8045C462.79 57.094 462.235 54.7834 461.079 52.8728C459.968 50.9621 458.435 49.5179 456.48 48.5404C454.525 47.5628 452.392 47.0741 450.082 47.0741C446.616 47.0741 443.661 48.1849 441.217 50.4066C438.773 52.6284 437.418 55.761 437.151 59.8045H462.746Z" fill="url(#paint0_linear_33_3328)"></path><defs><linearGradient id="paint0_linear_33_3328" x1="86.9279" y1="57.5" x2="470.928" y2="57.5" gradientUnits="userSpaceOnUse"><stop stop-color="#5E53E2"></stop><stop offset="1" stop-color="#0457F1"></stop></linearGradient></defs></svg>