<svg xmlns="http://www.w3.org/2000/svg" width="99" height="24" viewBox="0 0 99 24" fill="none"><g clip-path="url(#clip0_5999_222)"><path d="M5.79783 5.31803H0V0.0273438H17.9417V5.31803H12.1439V20.82H5.79783V5.31803Z" fill="#002852"></path><path d="M23.2324 14.0216C22.5334 14.3643 21.7521 14.5699 20.9709 14.7343C19.6962 15.0222 19.0246 15.3374 19.0246 16.3517C19.0246 17.0507 19.7647 17.7498 20.8064 17.7498C22.1085 17.7498 23.1365 16.9822 23.2324 15.4197V14.0216ZM28.7287 17.4482C28.715 18.5721 28.7698 19.8605 29.4003 20.82L23.5477 20.7789C23.4106 20.3677 23.3147 19.7646 23.3558 19.3534H23.301C22.0811 20.7378 20.2993 21.1352 18.4489 21.1215C15.5431 21.1078 13.1582 19.6961 13.1719 16.5436C13.1993 11.7874 18.7641 11.993 21.6973 11.4585C22.4786 11.3214 23.2598 11.0884 23.2736 10.129C23.2736 9.11469 22.3278 8.73091 21.3958 8.73091C19.6276 8.7172 19.2713 9.62183 19.2439 10.2523L13.9121 10.2249C14.0902 6.00333 18.0925 5.33171 21.6562 5.34542C28.8521 5.38654 28.7698 8.37454 28.7561 11.2803L28.7287 17.4482Z" fill="#002852"></path><path d="M37.5695 9.62193C35.5136 9.60822 35.0338 11.5545 35.0201 13.3227C35.0064 15.1182 35.4587 17.0645 37.5147 17.0782C39.5707 17.0919 40.0504 15.1456 40.0641 13.3501C40.0915 11.5682 39.6392 9.62193 37.5695 9.62193ZM29.565 0H35.308L35.2669 7.45631H35.3217C36.1989 6.18161 37.734 5.44146 39.4473 5.45517C44.4913 5.48258 45.8345 9.78641 45.8071 13.3227C45.7797 17.0919 43.6963 21.2861 39.4336 21.2587C36.6238 21.245 35.7603 20.1622 35.0338 19.2027H34.979L34.9653 20.8201H29.5513V0H29.565Z" fill="#002852"></path><path d="M53.8662 4.20787C51.6869 4.19417 51.3853 6.30496 51.3853 7.90862C51.3716 9.49856 51.6594 11.6505 53.8251 11.6642C56.0044 11.6779 56.3059 9.53968 56.3059 7.93603C56.3196 6.34608 56.0455 4.22158 53.8662 4.20787ZM53.7976 15.8447C48.1369 15.8172 45.6149 12.0617 45.6423 7.8812C45.6697 3.70073 48.2465 -8.43778e-06 53.8936 0.0411109C59.5544 0.0685238 62.0763 3.79668 62.0489 7.97715C62.0352 12.1439 59.4584 15.8721 53.7976 15.8447Z" fill="#002852"></path><path d="M68.1211 4.20787C65.9417 4.19417 65.6402 6.30496 65.6402 7.90862C65.6265 9.49856 65.9006 11.6505 68.08 11.6642C70.2593 11.6779 70.5608 9.53968 70.5608 7.93603C70.5745 6.34608 70.3004 4.22158 68.1211 4.20787ZM68.0525 15.8447C62.4055 15.8172 59.8698 12.048 59.8972 7.8812C59.9109 3.70073 62.4877 -8.43778e-06 68.1485 0.0411109C73.8093 0.0685238 76.3313 3.79668 76.3038 7.97715C76.2764 12.1439 73.7133 15.8721 68.0525 15.8447Z" fill="#002852"></path><path d="M76.9204 0.0410156H82.54V20.82H76.9204V0.0410156Z" fill="#002852"></path><path d="M93.012 13.9805C92.3129 14.3231 91.5317 14.5287 90.7504 14.6932C89.4757 14.981 88.8041 15.2963 88.8041 16.3106C88.8041 17.0096 89.5443 17.7086 90.5859 17.7086C91.8881 17.7086 92.916 16.9411 93.012 15.3785V13.9805ZM98.5357 17.3934C98.5357 18.531 98.4672 19.8468 99.0976 20.8063H93.3272C93.1902 20.3951 93.0942 19.7098 93.1216 19.2986H93.0668C91.8469 20.6829 90.0651 21.0804 88.2147 21.0667C85.3089 21.053 82.9103 19.6412 82.9377 16.4888C82.9651 11.7326 88.53 11.9382 91.4632 11.4037C92.2444 11.2666 93.0257 11.0336 93.0394 10.0741C93.0394 9.05986 92.0936 8.67607 91.1616 8.67607C89.3935 8.66237 89.0371 9.56699 89.0097 10.1975L83.6779 10.1701C83.8835 5.93478 87.8858 5.26317 91.4494 5.29058C98.6453 5.3317 98.5631 8.31971 98.5494 11.2118V17.3934H98.5357Z" fill="#002852"></path><path d="M47.7945 15.8447C51.8654 17.6677 56.1006 18.4764 60.706 18.5038C65.5444 18.5312 69.2177 17.6129 73.8642 15.8447L73.8368 20.8613C69.67 22.931 65.1606 24.0412 60.6649 24.0138C55.7717 23.9863 52.2354 22.9721 47.7534 20.8613L47.7945 15.8447Z" fill="#002852"></path></g><defs><clipPath id="clip0_5999_222"><rect width="99" height="24" fill="white"></rect></clipPath></defs></svg>